<mxfile host="app.diagrams.net" modified="2023-07-21T00:15:18.796Z" agent="Mozilla/5.0 (Windows NT 10.0; Win64; x64) AppleWebKit/537.36 (KHTML, like Gecko) Chrome/114.0.0.0 Safari/537.36" version="21.6.1" etag="0lww0pVAwY61Aqm-kqO3" type="github">
  <diagram name="Page-1" id="XiET4_LCxF__4rI366Q-">
    <mxGraphModel>
      <root>
        <mxCell id="0" />
        <mxCell id="1" parent="0" />
      </root>
    </mxGraphModel>
  </diagram>
</mxfile>
